<svg width="28" height="29" viewBox="0 0 28 29" fill="none" xmlns="http://www.w3.org/2000/svg">
<g clip-path="url(#clip0_1198_3033)">
<path d="M14 17.3711C15.5857 17.3711 16.8711 16.0857 16.8711 14.5C16.8711 12.9143 15.5857 11.6289 14 11.6289C12.4143 11.6289 11.1289 12.9143 11.1289 14.5C11.1289 16.0857 12.4143 17.3711 14 17.3711Z" fill="#325496"/>
<path d="M14 0.828125C6.44924 0.828125 0.328125 6.94924 0.328125 14.5C0.328125 22.0508 6.44924 28.1719 14 28.1719C21.5508 28.1719 27.6719 22.0508 27.6719 14.5C27.6719 6.94924 21.5508 0.828125 14 0.828125ZM22.4469 17.9748C22.3813 19.2747 22.016 20.5564 21.0688 21.4936C20.1124 22.4397 18.8245 22.7922 17.5122 22.8572H10.4879C9.17536 22.7922 7.88769 22.4399 6.93126 21.4936C5.98396 20.5564 5.61876 19.2747 5.55313 17.9748V11.0252C5.61876 9.72534 5.98402 8.44358 6.93126 7.50634C7.88769 6.56025 9.17552 6.20773 10.4879 6.14282H17.5121C18.8246 6.20773 20.1123 6.56009 21.0687 7.50634C22.016 8.44358 22.3812 9.72534 22.4469 11.0252L22.4469 17.9748Z" fill="#325496"/>
<path d="M17.4237 7.72635C15.7127 7.67943 12.2882 7.67943 10.5773 7.72635C9.68689 7.7508 8.67753 7.97245 8.04315 8.65003C7.38395 9.35435 7.13485 10.2053 7.10958 11.1572C7.06517 12.828 7.10958 17.8429 7.10958 17.8429C7.13851 18.7947 7.38395 19.6458 8.04315 20.3501C8.67753 21.0279 9.68689 21.2493 10.5773 21.2738C12.2882 21.3207 15.7127 21.3207 17.4237 21.2738C18.3141 21.2493 19.3234 21.0277 19.9578 20.3501C20.617 19.6458 20.8661 18.7948 20.8914 17.8429V11.1572C20.8661 10.2053 20.617 9.35435 19.9578 8.65003C19.3232 7.97223 18.3138 7.7508 17.4237 7.72635ZM14.0003 18.9503C13.1201 18.9503 12.2597 18.6893 11.5279 18.2003C10.796 17.7113 10.2256 17.0162 9.88882 16.2031C9.55199 15.3899 9.46386 14.4951 9.63557 13.6319C9.80729 12.7686 10.2311 11.9757 10.8535 11.3533C11.4759 10.7309 12.2688 10.3071 13.1321 10.1354C13.9953 9.96366 14.8901 10.0518 15.7033 10.3886C16.5164 10.7254 17.2115 11.2958 17.7005 12.0277C18.1895 12.7595 18.4505 13.6199 18.4505 14.5001C18.4505 15.6803 17.9816 16.8122 17.147 17.6468C16.3124 18.4814 15.1805 18.9503 14.0003 18.9503ZM18.4694 10.9684C18.2934 10.9684 18.1213 10.9162 17.975 10.8183C17.8286 10.7205 17.7146 10.5815 17.6472 10.4189C17.5799 10.2562 17.5623 10.0773 17.5967 9.90464C17.6311 9.732 17.7158 9.57343 17.8403 9.44898C17.9648 9.32453 18.1234 9.23978 18.296 9.20546C18.4687 9.17113 18.6476 9.18877 18.8102 9.25614C18.9729 9.32351 19.1119 9.43759 19.2097 9.58395C19.3074 9.73031 19.3596 9.90238 19.3596 10.0784C19.3596 10.1953 19.3366 10.3111 19.2919 10.4191C19.2471 10.5271 19.1815 10.6252 19.0989 10.7078C19.0162 10.7905 18.9181 10.856 18.81 10.9008C18.702 10.9455 18.5863 10.9685 18.4694 10.9684Z" fill="#325496"/>
</g>
<defs>
<clipPath id="clip0_1198_3033">
<rect width="28" height="28" fill="white" transform="translate(0 0.5)"/>
</clipPath>
</defs>
</svg>
