<svg width="28" height="29" viewBox="0 0 28 29" fill="none" xmlns="http://www.w3.org/2000/svg">
<g clip-path="url(#clip0_1198_3017)">
<path fill-rule="evenodd" clip-rule="evenodd" d="M14 0.5C21.732 0.5 28 6.76801 28 14.5C28 22.232 21.732 28.5 14 28.5C6.26801 28.5 0 22.232 0 14.5C0 6.76801 6.26801 0.5 14 0.5ZM22.8867 19.9272V9.52223L17.6839 14.7247L22.8867 19.9272ZM6.22475 20.1392H21.7756L17.0228 15.3864L15.2114 17.1976C15.1236 17.2852 15.0046 17.3343 14.8805 17.3343H13.1196C13.0582 17.3343 12.9973 17.3223 12.9405 17.2988C12.8837 17.2754 12.8321 17.241 12.7887 17.1976L10.9773 15.3864L6.22453 20.1392H6.22475ZM5.11328 9.52191V19.9275L10.3161 14.7247L5.11328 9.52191ZM22.2253 8.86079H5.775L13.3133 16.3991H14.6869L22.2253 8.86079Z" fill="#325496"/>
</g>
<defs>
<clipPath id="clip0_1198_3017">
<rect width="28" height="28" fill="white" transform="translate(0 0.5)"/>
</clipPath>
</defs>
</svg>
