<svg width="24" height="25" viewBox="0 0 24 25" fill="none" xmlns="http://www.w3.org/2000/svg">
<g id="Instagram" clip-path="url(#clip0_1228_1593)">
<g id="Group">
<g id="Group_2">
<path id="Vector" d="M18.9772 5.36548C18.656 5.36548 18.3945 5.6269 18.3945 5.94813C18.3945 6.26937 18.656 6.53079 18.9772 6.53079C19.2985 6.53079 19.5598 6.26942 19.5598 5.94813C19.5598 5.62685 19.2985 5.36548 18.9772 5.36548Z" fill="#405D7B"/>
</g>
</g>
<g id="Group_3">
<g id="Group_4">
<path id="Vector_2" d="M11.9994 7.75903C9.1512 7.75903 6.83398 10.0763 6.83398 12.9245C6.83398 15.7727 9.1512 18.09 11.9994 18.09C14.8477 18.09 17.1649 15.7727 17.1649 12.9245C17.1649 10.0763 14.8477 7.75903 11.9994 7.75903Z" fill="#405D7B"/>
</g>
</g>
<g id="Group_5">
<g id="Group_6">
<path id="Vector_3" d="M17.4208 0.924561H6.57923C2.95144 0.924561 0 3.876 0 7.50384V18.3453C0 21.9732 2.95144 24.9246 6.57923 24.9246H17.4208C21.0486 24.9246 24 21.9731 24 18.3453V7.50384C24 3.876 21.0486 0.924561 17.4208 0.924561ZM12 19.5073C8.37023 19.5073 5.4173 16.5543 5.4173 12.9246C5.4173 9.2948 8.37028 6.3419 12 6.3419C15.6297 6.3419 18.5828 9.29484 18.5828 12.9246C18.5828 16.5543 15.6297 19.5073 12 19.5073ZM18.9765 7.94812C17.8737 7.94812 16.9765 7.05094 16.9765 5.94815C16.9765 4.84537 17.8737 3.94814 18.9765 3.94814C20.0792 3.94814 20.9764 4.84533 20.9764 5.94811C20.9764 7.05089 20.0792 7.94812 18.9765 7.94812Z" fill="#405D7B"/>
</g>
</g>
</g>
<defs>
<clipPath id="clip0_1228_1593">
<rect width="24" height="24" fill="white" transform="translate(0 0.924561)"/>
</clipPath>
</defs>
</svg>
