<svg width="12" height="12" viewBox="0 0 12 12" fill="none" xmlns="http://www.w3.org/2000/svg">
<g id="fi_2989988">
<g id="layer1">
<path id="path9429" d="M3.75819 1.00017C3.6104 0.996921 3.46526 1.03977 3.34296 1.12282C3.22066 1.20586 3.12727 1.32501 3.07578 1.46359C3.02429 1.60217 3.01726 1.75332 3.05566 1.89608C3.09407 2.03884 3.17599 2.16603 3.29006 2.26007L7.64221 5.9885L3.29006 9.71562C3.21115 9.77361 3.14507 9.84723 3.09596 9.93194C3.04684 10.0167 3.01574 10.1106 3.00461 10.2079C2.99348 10.3052 3.00256 10.4037 3.03127 10.4973C3.05999 10.5909 3.10772 10.6777 3.17149 10.752C3.23526 10.8263 3.31368 10.8866 3.40185 10.9292C3.49002 10.9718 3.58603 10.9957 3.68388 10.9995C3.78173 11.0032 3.87931 10.9868 3.9705 10.9512C4.06169 10.9155 4.14453 10.8613 4.21383 10.7922L9.19665 6.52887C9.2749 6.46209 9.33773 6.37921 9.38082 6.2858C9.42391 6.19239 9.44622 6.09071 9.44622 5.98784C9.44622 5.88497 9.42391 5.7833 9.38082 5.68989C9.33773 5.59648 9.2749 5.51351 9.19665 5.44674L4.21383 1.17934C4.08796 1.06753 3.92651 1.00413 3.75819 1.00017Z" fill="#405D7B"/>
</g>
</g>
</svg>
