<svg width="29" height="29" viewBox="0 0 29 29" fill="none" xmlns="http://www.w3.org/2000/svg">
<g clip-path="url(#clip0_1198_3024)">
<path d="M24.398 4.59901C18.9299 -0.867495 10.0655 -0.866182 4.59901 4.60202C-0.867495 10.0702 -0.866182 18.9345 4.60202 24.401C10.0702 29.8675 18.9345 29.8662 24.401 24.398C27.0264 21.7719 28.5008 18.2104 28.5 14.497C28.4993 10.7843 27.0237 7.2239 24.398 4.59901ZM21.7025 20.0019C21.7019 20.0025 21.7013 20.0031 21.7007 20.0037V19.9991L20.9913 20.7037C20.0739 21.6327 18.7379 22.0149 17.468 21.7117C16.1886 21.3693 14.9723 20.8241 13.8653 20.0971C12.8369 19.4398 11.8838 18.6714 11.0233 17.8057C10.2316 17.0198 9.52034 16.1568 8.89997 15.2297C8.2214 14.2321 7.68432 13.1454 7.30397 12.0004C6.86794 10.6553 7.22926 9.17931 8.23732 8.18772L9.06797 7.35707C9.29891 7.12508 9.67418 7.12426 9.90611 7.35521C9.90671 7.35581 9.90736 7.35641 9.90797 7.35707L12.5306 9.97972C12.7626 10.2107 12.7634 10.5859 12.5325 10.8179C12.5319 10.8185 12.5313 10.8191 12.5306 10.8197L10.9906 12.3597C10.5487 12.7968 10.4932 13.4913 10.86 13.9931C11.417 14.7575 12.0333 15.4768 12.7033 16.1444C13.4503 16.8946 14.2623 17.5771 15.13 18.1838C15.6313 18.5334 16.3109 18.4745 16.7446 18.0438L18.2333 16.5318C18.4642 16.2998 18.8395 16.299 19.0714 16.5299C19.072 16.5305 19.0726 16.5311 19.0733 16.5318L21.7006 19.1638C21.9327 19.3947 21.9335 19.7699 21.7025 20.0019Z" fill="#325496"/>
</g>
<defs>
<clipPath id="clip0_1198_3024">
<rect width="28" height="28" fill="white" transform="translate(0.5 0.5)"/>
</clipPath>
</defs>
</svg>
