<svg width="52" height="52" viewBox="0 0 52 52" fill="none" xmlns="http://www.w3.org/2000/svg">
<g id="fi_2178165" clip-path="url(#clip0_1198_3176)">
<path id="Vector" d="M0.761042 45.8612C0.332854 45.8533 -0.00778646 45.4998 0.000135417 45.0717C0.126073 38.2637 1.22264 32.6267 6.29203 25.5696C6.54178 25.2219 7.02613 25.1425 7.37418 25.3922C7.72193 25.642 7.80135 26.1265 7.55151 26.4744C2.71693 33.2045 1.67114 38.5909 1.55069 45.1004C1.54277 45.5284 1.18923 45.8691 0.761042 45.8612Z" fill="#E7B467"/>
<path id="Vector_2" d="M51.0515 20.1599C51.0142 20.3129 50.9689 20.4655 50.9146 20.6171C50.0727 22.9702 47.4826 24.1954 45.1294 23.3534C43.6429 22.8215 42.6073 21.5918 42.2581 20.1651C42.195 19.9076 41.8601 19.8443 41.7087 20.0619C41.3956 20.5117 41.1426 21.0157 40.9658 21.567C40.0652 24.3751 41.5158 27.4497 44.2565 28.5383C47.2431 29.7245 50.5931 28.193 51.6667 25.1925C52.2917 23.4459 52.0044 21.5949 51.0515 20.1599Z" fill="#A698A6"/>
<path id="Vector_3" d="M51.0515 20.1599C51.0141 20.313 50.9688 20.4655 50.9146 20.6171C50.4939 21.793 49.6366 22.6872 48.5905 23.1825C48.6032 23.8486 48.4983 24.5281 48.2606 25.1925C47.6424 26.9205 46.2685 28.1597 44.6445 28.6748C47.5277 29.5881 50.6394 28.0638 51.6667 25.1925C52.2917 23.446 52.0044 21.5949 51.0515 20.1599Z" fill="#8F818F"/>
<path id="Vector_4" d="M50.9654 16.9682C47.0727 7.10365 33.3401 3.28063 20.2926 8.42934C8.7212 12.9955 1.57668 23.0844 2.82316 32.1898C2.878 32.5905 3.30111 32.8255 3.67009 32.6598C10.0215 29.8078 16.7858 29.4538 22.371 31.3582C22.6361 31.4486 22.8339 31.1157 22.628 30.9256C20.1461 28.6352 18.9108 25.7236 19.6016 22.9743C19.6909 22.6191 19.8102 22.277 19.9567 21.9482C21.1721 23.7234 23.0709 25.3024 25.4282 26.4279C25.6272 26.5229 25.8657 26.4258 25.9371 26.2172C27.035 23.0099 29.5187 19.9231 33.0644 17.8013C39.778 13.784 47.7455 14.7474 50.8606 19.953C51.4416 20.9241 51.8126 21.9742 51.9883 23.0662C52.0661 20.9912 51.7411 18.9338 50.9654 16.9682Z" fill="#E0DDE2"/>
<path id="Vector_5" d="M51.9887 23.0664C52.0665 20.9914 51.7415 18.9341 50.9659 16.9683C50.2049 15.0399 49.0665 13.3435 47.632 11.8988C40.1287 7.96114 28.7047 8.88901 18.4272 15.0389C10.7881 19.6101 5.39337 26.1032 3.0946 32.6153C3.25863 32.7215 3.47221 32.749 3.67067 32.6599C10.0221 29.8079 16.7863 29.4539 22.3716 31.3583C22.635 31.4482 22.8358 31.1169 22.6312 30.9282C20.1475 28.6373 18.911 25.7247 19.6021 22.9744C19.6601 22.7438 19.7307 22.5186 19.8132 22.299C19.8706 22.1463 20.0756 22.12 20.1724 22.2513C21.3913 23.9028 23.2061 25.3669 25.4284 26.428C25.6281 26.5234 25.8663 26.425 25.938 26.2157C27.0363 23.0089 29.5197 19.923 33.0648 17.8016C39.7784 13.7843 47.7458 14.7477 50.861 19.9533C51.442 20.9243 51.813 21.9744 51.9887 23.0664Z" fill="#C8C1C9"/>
<path id="Vector_6" d="M50.9658 16.9682C47.6917 8.67088 37.4556 4.6488 26.5214 6.64389C34.4245 6.65486 41.3263 9.89816 44.5655 15.6343C47.2447 16.2356 49.5095 17.6949 50.8609 19.9532C51.442 20.9242 51.813 21.9743 51.9887 23.0663C52.0666 20.9912 51.7416 18.9339 50.9658 16.9682Z" fill="#C8C1C9"/>
<path id="Vector_7" d="M50.9661 16.9682C50.2052 15.0398 49.0667 13.3434 47.6322 11.8987C44.9644 10.4987 41.8005 9.71441 38.3691 9.56055C40.9954 11.0575 43.1367 13.1037 44.5658 15.6343C47.245 16.2355 49.5098 17.6949 50.8612 19.9531C51.4423 20.9242 51.8133 21.9743 51.989 23.0663C52.0669 20.9912 51.7419 18.9339 50.9661 16.9682Z" fill="#A698A6"/>
</g>
<defs>
<clipPath id="clip0_1198_3176">
<rect width="52" height="52" fill="white"/>
</clipPath>
</defs>
</svg>
