<svg width="24" height="24" viewBox="0 0 24 24" fill="none" xmlns="http://www.w3.org/2000/svg">
<g id="fi_3128219">
<g id="_x31_0.Linkedin">
<path id="Vector" d="M21.5999 21.5998V14.5678C21.5999 11.1118 20.8559 8.4718 16.8239 8.4718C14.8799 8.4718 13.5839 9.5278 13.0559 10.5358H13.0079V8.7838H9.19189V21.5998H13.1759V15.2398C13.1759 13.5598 13.4879 11.9518 15.5519 11.9518C17.5919 11.9518 17.6159 13.8478 17.6159 15.3358V21.5758H21.5999V21.5998Z" fill="#405D7B"/>
<path id="Vector_2" d="M2.71191 8.78381H6.69591V21.5998H2.71191V8.78381Z" fill="#405D7B"/>
<path id="Vector_3" d="M4.7039 2.39978C3.4319 2.39978 2.3999 3.43178 2.3999 4.70378C2.3999 5.97578 3.4319 7.03178 4.7039 7.03178C5.9759 7.03178 7.0079 5.97578 7.0079 4.70378C7.0079 3.43178 5.9759 2.39978 4.7039 2.39978Z" fill="#405D7B"/>
</g>
</g>
</svg>
